<svg width="236" height="235" viewBox="0 0 236 235" fill="none" xmlns="http://www.w3.org/2000/svg">
  <g clip-path="url(#clip0_2056_20910)">
    <path
      d="M45.6696 47.435L118.327 13.9258L195.355 47.435V134.472C188.945 157.464 150.45 203.884 118.327 203.884C92.1048 203.884 47.6362 154.2 41.1899 129.141L45.6696 47.435Z"
      fill="#EEEEEE" stroke="black" stroke-linecap="round" />
    <path fill-rule="evenodd" clip-rule="evenodd"
      d="M36.7982 57.3172C36.7982 50.0629 41.0798 43.4891 47.7233 40.5429L112.112 11.9884C116.869 9.87887 122.298 9.87887 127.055 11.9884L191.444 40.5429C198.087 43.4891 202.369 50.0629 202.369 57.3172V118.814C202.369 172.751 144.023 200.813 125.296 208.43C121.61 209.93 117.558 209.93 113.871 208.43C95.1446 200.813 36.7982 172.751 36.7982 118.814V57.3172ZM187.708 48.9301C191.03 50.4032 193.171 53.6901 193.171 57.3172V118.814C193.171 142.141 180.626 160.33 164.814 174.071C148.978 187.833 130.761 196.296 121.823 199.931C120.364 200.525 118.804 200.525 117.344 199.931C108.406 196.296 90.1896 187.833 74.3533 174.071C58.5414 160.33 45.9966 142.141 45.9966 118.814V57.3172C45.9966 53.6901 48.1373 50.4032 51.4591 48.9301L115.848 20.3756C118.226 19.3208 120.941 19.3208 123.319 20.3756L187.708 48.9301Z"
      fill="black" />
  </g>
  <g filter="url(#filter0_b_2056_20910)">
    <path fill-rule="evenodd" clip-rule="evenodd"
      d="M41.4628 74.9485C35.5181 77.5795 31.6869 83.4498 31.6869 89.9277V144.843C31.6869 193.008 83.8962 218.067 100.653 224.869C103.952 226.208 107.578 226.208 110.876 224.869C127.633 218.067 179.842 193.008 179.842 144.843V89.9277C179.842 83.4498 176.011 77.5795 170.067 74.9485L112.451 49.4499C108.194 47.5662 103.336 47.5662 99.0787 49.4499L41.4628 74.9485Z"
      fill="url(#paint0_linear_2056_20910)" fill-opacity="0.4" />
  </g>
  <path
    d="M72.1632 83.2915C76.6574 83.2915 80.0106 83.5398 82.3529 85.4975C82.4078 85.5435 82.4617 85.5934 82.5147 85.6462C81.5967 82.2638 80.3437 79.3109 78.8981 78.9178C76.2293 78.1931 61.6986 77.1672 57.7629 83.908C57.6792 84.0642 57.6951 84.1266 57.6951 84.1266C57.9116 84.5484 60.8851 84.1611 62.853 83.9061C64.9378 83.6347 67.2999 83.327 69.4415 83.3088L69.8719 83.3049C70.6661 83.2983 71.4301 83.2915 72.1632 83.2915ZM63.9549 97.15C64.5156 98.0799 66.9442 100.684 72.1483 100.228C75.1795 99.9685 76.4157 99.6368 77.4087 99.3703C78.5794 99.0559 79.3545 98.8488 82.1396 99.0338C82.4049 99.0434 82.7289 98.8641 83.0201 98.5525C83.3865 98.1614 83.6661 97.6082 83.8482 96.9428C83.6791 96.8911 83.4678 96.7262 83.1038 96.4415C81.745 95.3801 78.1318 92.5586 73.5698 93.1233C71.6525 93.316 70.0958 94.2095 68.4479 95.1548C67.0592 95.9506 65.6271 96.7722 63.9549 97.15ZM92.1899 123.678C91.8817 123.678 91.5934 123.714 91.345 123.792C90.8247 123.956 90.3139 124.452 90.3918 125.048C90.4964 125.844 91.6483 126.732 94.447 127.156C95.1936 126.704 95.5676 126.194 95.6764 125.785C95.7621 125.461 95.625 125.125 95.2677 124.785C94.5649 124.118 93.2589 123.678 92.1899 123.678ZM80.1045 124.221C80.0765 124.454 80.0977 124.851 80.3181 125.326C80.6263 125.989 81.4562 127.051 83.6801 127.69C82.9594 126.677 80.9295 124.804 80.1045 124.221ZM88.2136 128.286C90.4767 128.355 92.1278 128.095 93.2917 127.689C90.2884 127.011 89.7391 125.756 89.6587 125.143C89.5427 124.257 90.1585 123.393 91.1221 123.09C92.4965 122.659 94.6723 123.201 95.778 124.252C96.3291 124.776 96.5467 125.387 96.3908 125.973C96.2709 126.425 95.9941 126.876 95.5401 127.289C95.9248 127.326 96.335 127.355 96.7706 127.375C99.8677 127.529 102.024 126.388 102.669 124.27C103.375 121.95 102.043 118.375 98.1305 116.03C91.4577 112.031 89.3584 110.399 88.3076 107.293C88.2854 107.227 88.2657 107.208 88.2657 107.208C88.1511 107.215 87.5137 107.664 86.8264 109.086C85.5589 111.71 85.0332 115.879 87.7227 118.995C89.1278 120.621 88.8275 123.039 88.4795 125.84C88.3817 126.624 88.2801 127.443 88.2136 128.286ZM89.0643 135.023C90.7909 139.101 95.4241 143.045 106.838 145.719C106.533 145.497 106.18 145.244 105.831 144.996C104.047 143.726 101.351 141.806 99.3222 139.76C96.6503 137.064 92.8705 134.775 89.0643 135.023ZM88.0558 143.05C85.5633 143.05 81.7103 143.546 79.8008 145.448C79.2379 146.008 78.5501 146.493 77.8352 146.889C78.1819 146.83 78.552 146.768 78.9472 146.702C80.0067 146.525 81.0985 146.343 82.0973 146.163C85.5598 145.54 91.9838 145.43 96.125 145.923C97.6905 146.107 99.8499 146.242 101.85 146.33C100.118 145.913 98.3264 145.382 96.5631 144.86C93.6258 143.991 90.8516 143.169 88.8953 143.072C88.6392 143.057 88.3576 143.05 88.0558 143.05ZM73.9178 147.418C74.6196 147.451 77.5156 146.683 79.2779 144.927C81.4509 142.763 85.8361 142.174 88.9328 142.335C90.9777 142.439 93.7929 143.271 96.774 144.155C100.069 145.129 103.467 146.135 106.341 146.354C94.6107 143.546 89.9433 139.394 88.2527 135.111C87.2745 135.265 86.3026 135.596 85.3548 136.139C85.1271 136.274 84.871 136.178 84.4065 136.002C83.383 135.614 81.4798 134.892 79.2683 136.095C76.3863 137.662 73.3955 143.026 73.9178 147.418ZM73.9323 147.533C73.9342 147.546 73.9361 147.56 73.938 147.575C73.9396 147.56 73.9371 147.547 73.9323 147.533ZM151.218 140.269C149.384 140.269 146.998 141.622 144.334 144.209C138.183 150.182 129.526 155.134 121.153 159.925C109.481 166.603 99.3055 172.425 99.4903 179.059C102.733 178.76 105.604 178.242 107.495 177.686C110.405 176.83 115.442 174.954 120.776 172.971C125.718 171.132 130.828 169.23 134.618 168.002C148.763 163.191 154.336 152.105 154.63 145.825C154.757 143.123 153.979 141.192 152.495 140.527C152.108 140.354 151.68 140.269 151.218 140.269ZM105.703 211.126C105.663 210.943 101.715 192.715 98.9315 180.497C98.8818 180.28 98.8429 180.065 98.8136 179.851C92.9316 180.319 86.0311 180.073 81.4422 178.123C73.1226 174.587 67.8766 160.407 65.49 152.269C63.3141 144.85 62.1011 139.958 60.6959 134.295C60.0596 131.729 59.3885 129.024 58.5755 125.875C56.6023 118.233 59.5296 110.516 61.6669 104.881C62.3667 103.036 62.9714 101.442 63.2776 100.175C63.2732 100.027 62.995 99.1911 62.8111 98.6379C62.6753 98.2304 62.5454 97.8402 62.4669 97.5526C60.1468 97.1719 58.0653 95.478 56.2808 92.5174L56.16 92.3161L56.289 92.1051C56.4377 91.8836 56.6413 91.9182 57.0452 91.99C58.2684 92.2068 61.9889 92.8625 66.5259 90.2864C69.713 88.4783 74.2327 88.3124 78.0384 89.8665C80.9719 91.0649 83.0841 93.0878 84.0695 95.6189C84.1086 95.1059 84.1032 94.5575 84.0502 93.9862C83.9251 92.6344 83.6709 90.8856 83.3089 89.0602C82.9316 87.624 82.4521 86.5416 81.8774 86.0613C79.3617 83.9598 75.385 83.9952 69.8781 84.0412L69.4473 84.0451C67.3514 84.0623 65.0124 84.3672 62.9493 84.6357C59.3572 85.1025 57.608 85.2943 57.0876 84.5466C56.9576 84.3595 56.8575 84.0345 57.1169 83.5494C61.2678 76.4425 76.3305 77.4567 79.0926 78.2084C81.4258 78.8412 83.0245 84.1074 83.928 88.4936C85.3967 93.4789 85.3967 102.596 84.1432 106.12C83.0019 109.328 81.3993 113.046 80.3384 115.505C79.8676 116.598 79.4878 117.478 79.2755 118.016L79.0763 118.51C78.3364 120.323 77.324 122.806 78.6026 125.229C79.5962 127.113 81.3916 127.823 82.1176 128.04C82.3934 128.123 82.6494 128.177 82.8805 128.21C80.5718 127.393 79.7772 126.101 79.5042 125.274C79.2621 124.54 79.3184 123.789 79.6385 123.49C79.7801 123.358 79.9687 123.317 80.141 123.387C80.6114 123.574 84.1086 126.513 84.6169 127.916C84.9687 127.985 85.3485 128.046 85.7582 128.095C86.3618 128.166 86.9332 128.218 87.4718 128.25C87.5416 127.389 87.6456 126.552 87.7453 125.75C88.0721 123.123 88.3538 120.854 87.1624 119.474C84.1784 116.018 84.7979 111.464 86.2352 108.614C86.4956 108.099 87.4213 106.396 88.3451 106.485C88.4895 106.495 88.8438 106.571 89.0085 107.057C89.9423 109.819 91.5409 111.222 98.5117 115.399C102.31 117.676 104.312 121.412 103.377 124.484C102.638 126.914 100.166 128.258 96.7359 128.111C95.9503 128.074 95.2519 128.01 94.6299 127.926C93.3051 128.65 91.2108 129.124 88.1655 129.021C88.0798 130.732 88.1819 132.524 88.7894 134.302C92.9071 133.954 96.9919 136.361 99.8488 139.242C101.833 141.244 104.498 143.142 106.261 144.397C108.186 145.768 108.533 146.015 108.381 146.426C108.346 146.518 108.222 146.729 107.858 146.702C107.789 146.687 107.72 146.671 107.652 146.656L107.661 146.836C107.607 147.23 107.602 147.271 103.096 147.114C101.74 147.066 98.3403 146.926 96.0374 146.652C91.9569 146.17 85.6331 146.277 82.2283 146.889C81.227 147.069 80.1319 147.251 79.069 147.428C76.9033 147.79 74.2081 148.24 73.8669 148.452C73.6998 148.843 74.3468 152.262 77.5767 154.076C80.8477 155.91 89.0479 155.806 93.2537 154.927C97.1653 154.111 103.388 150.615 106.571 147.444L107.094 147.965C103.828 151.218 97.4315 154.807 93.4058 155.649C89.6034 156.443 80.9425 156.807 77.2138 154.718C74.3972 153.136 73.242 150.327 73.1529 148.825C73.1283 148.417 73.1871 148.128 73.332 147.951C73.2449 147.861 73.1981 147.743 73.202 147.614C72.5421 142.899 75.7292 137.181 78.9141 135.449C81.4239 134.083 83.6165 134.914 84.6693 135.314C84.8089 135.367 84.9765 135.43 85.0674 135.455C86.0302 134.916 87.0136 134.576 88.0004 134.404C87.4146 132.578 87.327 130.741 87.4219 128.985C86.8672 128.951 86.2843 128.898 85.6706 128.825C85.2638 128.777 84.8825 128.718 84.5264 128.649C84.4796 128.702 84.4228 128.747 84.3569 128.782C83.8501 129.06 82.9089 129.046 81.9043 128.745C81.0894 128.5 79.0719 127.703 77.9479 125.572C76.5095 122.846 77.6417 120.07 78.3908 118.233L78.5872 117.747C78.8013 117.204 79.184 116.316 79.6592 115.214C80.7158 112.764 82.313 109.059 83.4462 105.874C84.07 104.121 84.3464 101.074 84.3087 97.8757C84.1119 98.3369 83.8616 98.7337 83.5612 99.0549C83.1198 99.5266 82.5715 99.7701 82.1075 99.7692C79.4272 99.5928 78.7393 99.7768 77.6013 100.081C76.6338 100.341 75.3085 100.696 72.2119 100.963C66.1215 101.481 63.6579 98.0339 63.3969 97.6389C63.0301 97.0818 63.0628 96.8556 63.1432 96.708L63.2478 96.5143L63.4932 96.4999C65.1458 96.1989 66.6365 95.3437 68.0788 94.5163C69.7217 93.5739 71.4205 92.5998 73.487 92.3918C78.0634 91.8223 81.6963 94.4205 83.2917 95.6533C82.3529 93.4368 80.4193 91.6353 77.7577 90.5482C74.1546 89.0765 69.8897 89.226 66.8917 90.9269C62.5477 93.3898 58.909 93.0389 57.3234 92.7839C58.8999 95.1624 60.6742 96.5211 62.609 96.8297C62.8269 96.8652 63.0157 96.8949 63.109 97.0972C63.1836 97.4165 63.3512 97.9198 63.5129 98.4068C63.899 99.566 64.0511 100.064 64.0001 100.33C63.6795 101.659 63.0672 103.273 62.3586 105.142C60.256 110.684 57.3764 118.275 59.2918 125.691C60.1053 128.843 60.7773 131.551 61.4136 134.117C62.8168 139.774 64.0285 144.658 66.1995 152.062C68.0918 158.513 73.3927 173.901 81.732 177.445C86.2184 179.35 92.9812 179.594 98.7505 179.124C98.4973 172.039 108.878 166.099 120.785 159.286C129.118 154.519 137.733 149.589 143.818 143.681C147.384 140.22 150.574 138.86 152.799 139.856C154.574 140.65 155.511 142.839 155.37 145.86C155.066 152.338 149.351 163.769 134.852 168.699C131.071 169.926 125.969 171.825 121.034 173.66C115.688 175.649 110.639 177.527 107.705 178.391C105.781 178.959 102.856 179.484 99.5516 179.787C99.5772 179.969 99.6106 180.15 99.6529 180.334C102.436 192.558 106.387 210.788 106.426 210.971L105.703 211.126Z"
    fill="#464646" stroke="#464646" stroke-width="2" stroke-miterlimit="2" stroke-linejoin="round" />
  <path fill-rule="evenodd" clip-rule="evenodd"
    d="M31.6869 89.9277C31.6869 83.4498 35.5181 77.5795 41.4628 74.9486L99.0787 49.4499C103.336 47.5662 108.194 47.5662 112.451 49.4499L170.067 74.9486C176.011 77.5795 179.842 83.4498 179.842 89.9277V144.843C179.842 193.008 127.633 218.067 110.876 224.869C107.578 226.208 103.952 226.208 100.653 224.869C83.8962 218.067 31.6869 193.008 31.6869 144.843V89.9277ZM166.723 82.4381C169.696 83.7536 171.612 86.6887 171.612 89.9277V144.843C171.612 165.674 160.386 181.916 146.237 194.186C132.067 206.475 115.767 214.033 107.769 217.279C106.463 217.81 105.068 217.81 103.76 217.279C95.7625 214.033 79.4624 206.475 65.2919 194.186C51.1431 181.916 39.9178 165.674 39.9178 144.843V89.9277C39.9178 86.6887 41.8333 83.7536 44.8057 82.4381L102.422 56.9395C104.55 55.9976 106.98 55.9976 109.107 56.9395L166.723 82.4381Z"
    fill="url(#paint1_linear_2056_20910)" fill-opacity="0.3" />
  <defs>
    <filter id="filter0_b_2056_20910" x="26.6869" y="43.0371" width="158.156" height="187.836"
      filterUnits="userSpaceOnUse" color-interpolation-filters="sRGB">
      <feFlood flood-opacity="0" result="BackgroundImageFix" />
      <feGaussianBlur in="BackgroundImageFix" stdDeviation="2.5" />
      <feComposite in2="SourceAlpha" operator="in" result="effect1_backgroundBlur_2056_20910" />
      <feBlend mode="normal" in="SourceGraphic" in2="effect1_backgroundBlur_2056_20910"
        result="shape" />
    </filter>
    <linearGradient id="paint0_linear_2056_20910" x1="179.622" y1="48.3049" x2="32.2104"
      y2="226.476" gradientUnits="userSpaceOnUse">
      <stop stop-color="#5900EB" />
      <stop offset="1" stop-color="#0500FF" stop-opacity="0" />
    </linearGradient>
    <linearGradient id="paint1_linear_2056_20910" x1="179.622" y1="48.3048" x2="32.2104"
      y2="226.476" gradientUnits="userSpaceOnUse">
      <stop stop-color="#E600EB" />
      <stop offset="1" stop-color="#0500FF" stop-opacity="0" />
    </linearGradient>
    <clipPath id="clip0_2056_20910">
      <rect width="210.652" height="209.759" fill="white" transform="translate(18.3556)" />
    </clipPath>
  </defs>
</svg>
  